<?xml version="1.0" encoding="iso-8859-1"?>
<svg width="110" height="110" viewBox="0 0 110 110" fill="none" xmlns="http://www.w3.org/2000/svg">
<path d="M70 7.289C65.265 5.80175 60.226 5 55 5C27.3857 5 5 27.3857 5 55C5 82.614 27.3857 105 55 105C82.614 105 105 82.614 105 55C105 46.4235 102.841 38.3511 99.0355 31.2972M80 23.75H80.025M47.5005 104.441L47.501 93.4245C47.501 92.828 47.7145 92.251 48.1025 91.798L60.5315 77.297C61.553 76.1055 61.2365 74.278 59.874 73.4995L45.5925 65.3385C45.2045 65.117 44.8831 64.7955 44.6617 64.407L35.3523 48.093C34.8678 47.244 33.9328 46.7555 32.9591 46.842L5.3209 49.3035M100 25C100 36.0457 90 45 80 55C70 45 60 36.0457 60 25C60 13.9543 68.9545 5 80 5C91.0455 5 100 13.9543 100 25ZM81.25 23.75C81.25 24.4404 80.6905 25 80 25C79.3095 25 78.75 24.4404 78.75 23.75C78.75 23.0596 79.3095 22.5 80 22.5C80.6905 22.5 81.25 23.0596 81.25 23.75Z" stroke="white" stroke-width="10" stroke-linecap="round" stroke-linejoin="round"/>
</svg>