<?xml version="1.0" encoding="iso-8859-1"?>
<svg width="237" height="149" viewBox="0 0 237 149" fill="none" xmlns="http://www.w3.org/2000/svg">
<path d="M4.32 77.208C5.472 70.552 7.936 64.632 11.712 59.448C15.552 54.2 20.32 50.136 26.016 47.256C31.712 44.312 37.888 42.84 44.544 42.84C52.608 42.84 59.072 44.792 63.936 48.696C68.864 52.6 71.552 58.008 72 64.92H53.952C53.12 62.68 51.648 60.984 49.536 59.832C47.488 58.616 44.96 58.008 41.952 58.008C36.64 58.008 32.064 59.768 28.224 63.288C24.448 66.744 22.048 71.384 21.024 77.208C20.704 79.128 20.544 80.792 20.544 82.2C20.544 86.936 21.92 90.584 24.672 93.144C27.424 95.704 31.328 96.984 36.384 96.984C40.48 96.984 44.096 95.96 47.232 93.912C50.368 91.8 52.896 88.824 54.816 84.984H34.08L36.096 72.984H71.808L69.12 88.248C67.2 92.344 64.448 96.152 60.864 99.672C57.344 103.192 53.152 106.04 48.288 108.216C43.424 110.392 38.176 111.48 32.544 111.48C26.72 111.48 21.6 110.36 17.184 108.12C12.832 105.816 9.472 102.616 7.104 98.52C4.8 94.424 3.648 89.656 3.648 84.216C3.648 82.36 3.872 80.024 4.32 77.208ZM90.981 43.608L79.077 111H62.661L74.565 43.608H90.981ZM106.238 111.672C98.9415 111.672 92.9895 110.104 88.3815 106.968C83.8375 103.768 81.5655 99.256 81.5655 93.432C81.5655 92.856 81.6295 91.992 81.7575 90.84H98.8455C98.6535 93.272 99.2295 95.192 100.573 96.6C101.917 98.008 103.965 98.712 106.718 98.712C109.214 98.712 111.166 98.168 112.573 97.08C114.045 95.992 114.781 94.456 114.781 92.472C114.781 90.424 113.854 88.76 111.998 87.48C110.206 86.2 107.39 84.76 103.55 83.16C99.8375 81.624 96.7975 80.184 94.4295 78.84C92.1255 77.432 90.1095 75.544 88.3815 73.176C86.6535 70.808 85.7895 67.832 85.7895 64.248C85.7255 59.832 86.8135 55.992 89.0535 52.728C91.2935 49.464 94.3975 46.968 98.3655 45.24C102.333 43.512 106.878 42.648 111.998 42.648C116.606 42.648 120.702 43.384 124.286 44.856C127.87 46.264 130.654 48.344 132.637 51.096C134.622 53.784 135.614 56.984 135.614 60.696C135.614 61.656 135.582 62.36 135.518 62.808H118.046C118.11 62.552 118.142 62.168 118.142 61.656C118.142 59.864 117.502 58.424 116.222 57.336C115.006 56.184 113.31 55.608 111.134 55.608C108.83 55.608 106.941 56.184 105.469 57.336C104.062 58.424 103.358 59.928 103.358 61.848C103.358 63.768 104.254 65.4 106.046 66.744C107.838 68.024 110.622 69.528 114.398 71.256C118.174 72.984 121.246 74.584 123.614 76.056C126.045 77.528 128.125 79.512 129.854 82.008C131.582 84.44 132.446 87.448 132.446 91.032C132.446 95 131.39 98.552 129.278 101.688C127.166 104.824 124.126 107.288 120.158 109.08C116.19 110.808 111.55 111.672 106.238 111.672Z" fill="white"/>
<path d="M197 7.289C192.265 5.80175 187.226 5 182 5C154.386 5 132 27.3857 132 55C132 82.614 154.386 105 182 105C209.614 105 232 82.614 232 55C232 46.4235 229.841 38.3511 226.036 31.2972M207 23.75H207.025M174.501 104.441L174.501 93.4245C174.501 92.828 174.714 92.251 175.102 91.798L187.532 77.297C188.553 76.1055 188.237 74.278 186.874 73.4995L172.592 65.3385C172.204 65.117 171.883 64.7955 171.662 64.407L162.352 48.093C161.868 47.244 160.933 46.7555 159.959 46.842L132.321 49.3035M227 25C227 36.0457 217 45 207 55C197 45 187 36.0457 187 25C187 13.9543 195.954 5 207 5C218.046 5 227 13.9543 227 25ZM208.25 23.75C208.25 24.4404 207.69 25 207 25C206.31 25 205.75 24.4404 205.75 23.75C205.75 23.0596 206.31 22.5 207 22.5C207.69 22.5 208.25 23.0596 208.25 23.75Z" stroke="white" stroke-width="10" stroke-linecap="round" stroke-linejoin="round"/>
</svg>